<svg xmlns="http://www.w3.org/2000/svg" viewBox="0 0 138.17 93.12"><defs><style>.cls-1,.cls-2{fill:#fff;}.cls-1,.cls-3{fill-rule:evenodd;}.cls-3,.cls-4{fill:#b3d157;}</style></defs><title>branding</title><g id="Layer_2" data-name="Layer 2"><g id="kiwi-home-page_Image" data-name="kiwi-home-page Image"><path class="cls-1" d="M73.73,23.82c3.15-.75,5.82-2,6,.64.26,3.24,2,13.76,2.83,20.74.19,1.5.25,1.87-.23,2-2.15.65-4.32-2.89-6.7-2.57L73.72,23.83Z"/><path class="cls-1" d="M64.15,23.82c-4-1-7.15-3.17-7.84,0s-1.2,14.68-2,21.39c-.22,1.72,1.57,2.46,2.15,2.61,2.06.53,3.51-3.44,5.8-3.13l1.94-20.81Z"/><path class="cls-1" d="M61,44.24l-.1.24a69,69,0,0,0,15.87,0l-.13-.28Z"/><path class="cls-1" d="M59.08,44.19c1.09-3.14-1.4-17.83-2.77-20.54.78-2.77,8-3.39,10-5a3.4,3.4,0,0,0,2.61,1,3.5,3.5,0,0,0,2.64-1c1.43,1.17,8.93,2.08,10.22,4.85-1.46,3.1-4.14,17.84-3,20.66A65.92,65.92,0,0,1,59.08,44.19Z"/><polygon class="cls-1" points="64 20.02 63.77 26.2 68.94 39.32 74.03 26.2 73.72 19.85 71.55 18.66 66.29 18.69 64 20.02"/><rect class="cls-2" x="66.29" y="16.53" width="5.16" height="5.35"/><path class="cls-1" d="M69.76,25.19l.36-.76L68.9,21.48l-1.2,2.9.38.81Z"/><polygon class="cls-1" points="66.29 18.69 68.9 21.48 67.04 26.45 64.74 19.72 66.29 18.69"/><polygon class="cls-1" points="64.76 19.58 68.9 39.39 62.08 28.52 62.98 26.63 61.03 25.08 63.68 20.18 64.76 19.58"/><polygon class="cls-1" points="71.55 18.66 68.9 21.48 70.76 26.45 73.09 19.69 71.55 18.66"/><polygon class="cls-1" points="68.09 27.04 69.76 27.04 70.63 35.41 68.9 39.39 67.24 35.41 68.09 27.04"/><polygon class="cls-1" points="66.29 18.69 68.9 21.48 67 25.22 64.74 19.72 66.29 18.69"/><polygon class="cls-1" points="64.76 19.58 68.9 39.39 62.75 27.66 63.77 26.2 61.8 24.67 63.67 20.18 64.76 19.58"/><polygon class="cls-1" points="73.14 19.54 68.9 39.39 75.72 28.52 74.82 26.63 76.77 25.08 74.68 20.25 73.14 19.54"/><polygon class="cls-1" points="73.14 19.54 68.9 39.39 75.06 27.66 74.03 26.2 76 24.67 74.68 20.25 73.14 19.54"/><polygon class="cls-1" points="71.55 18.66 68.9 21.48 70.8 25.22 73.09 19.69 71.55 18.66"/><path class="cls-1" d="M68.09,25.05h1.67a2.21,2.21,0,0,1,0,2.11H68.09A2.21,2.21,0,0,1,68.09,25.05Z"/><path class="cls-1" d="M68.67,45c0-1.45.15-3.18.33-5.78.18,2.59.3,4.32.35,5.78Z"/><polygon class="cls-1" points="63.22 20.18 63.86 26.1 69 39.16 74.07 26.1 74.72 20.18 72.26 18.61 65.67 18.61 63.22 20.18"/><rect class="cls-2" x="65.67" y="16.49" width="6.53" height="5.32"/><path class="cls-1" d="M69,19.62c2.57,0,5-2.94,6.21-6.55a.45.45,0,0,0,.25.14c.51.09,1.1-.88,1.31-2.15s0-2.37-.55-2.46h-.11C76.34,4.13,74.48,0,69,0s-7.37,4.13-7.12,8.61a.4.4,0,0,0-.17,0c-.51.09-.76,1.19-.55,2.46s.8,2.23,1.31,2.15a.48.48,0,0,0,.29-.18C64,16.65,66.38,19.62,69,19.62Z"/><path class="cls-3" d="M69.82,25.1l.36-.76L69,21.41l-1.19,2.89.38.8Z"/><polygon class="cls-1" points="65.67 19.59 68.97 21.41 67.12 26.36 64.14 19.62 65.67 19.59"/><polygon class="cls-3" points="63.36 19.95 68.97 39.66 62.19 28.42 63.08 26.53 61.14 24.98 62.75 20.14 63.36 19.95"/><polygon class="cls-1" points="72.22 19.72 68.97 21.41 70.82 26.36 73.8 19.62 72.22 19.72"/><polygon class="cls-3" points="65.67 18.61 68.97 21.41 67.08 25.13 64.14 19.62 65.67 18.61"/><polygon class="cls-1" points="64.14 19.62 68.97 39.23 62.84 27.55 63.86 26.1 61.9 24.58 63.22 19.97 64.14 19.62"/><polygon class="cls-3" points="74.38 19.71 68.97 39.66 75.75 28.42 74.86 26.53 76.79 24.98 75.44 20.1 74.38 19.71"/><polygon class="cls-1" points="73.97 19.58 68.97 39.23 75.09 27.55 74.07 26.1 76.03 24.58 74.97 19.97 73.97 19.58"/><polygon class="cls-3" points="72.26 18.61 68.97 21.41 70.86 25.13 73.8 19.62 72.26 18.61"/><path class="cls-3" d="M68.16,25h1.66a2.19,2.19,0,0,1,0,2.1H68.16A2.19,2.19,0,0,1,68.16,25Z"/><path class="cls-1" d="M68.55,45h.82A30.61,30.61,0,0,0,69,39.18,29.41,29.41,0,0,0,68.55,45Z"/><polygon class="cls-3" points="68.16 26.94 69.82 26.94 71.44 47.09 66.93 47.09 68.16 26.94"/><rect class="cls-2" x="39.77" y="43.59" width="57.73" height="6.87" rx="3.44" ry="3.44"/><path class="cls-1" d="M9,54.83H39.11c6.75,0,5.88,9.32,0,9.32H16.4C8.73,64.15,7.38,59.21,9,54.83Z"/><polygon class="cls-1" points="19.14 17.88 24.69 19.43 23.23 29.23 16.83 27.49 19.14 17.88"/><path class="cls-1" d="M26.39,21.19c5.81-1.8,5.26-22.7-6.94-19-7.18,2.2-6.3,10.7-2.37,15.63C19.39,20.76,23.63,22,26.39,21.19Z"/><path class="cls-1" d="M29,7.4C28.18,9,22.14,11.81,19.52,12S19.32,2.06,29,7.4Z"/><ellipse class="cls-2" cx="18.82" cy="14.18" rx="1.46" ry="2.62" transform="translate(-1.44 2.15) rotate(-6.31)"/><path class="cls-1" d="M23.92,29.52l-1.85,25.3c-5.18,0-8.73,2.36-13.63,4.07a74.36,74.36,0,0,1,8.29-36.27C18.88,25.27,22.58,29.69,23.92,29.52Z"/><path class="cls-1" d="M51.31,36.64l-3.4.67c-.44.09-2,.85-2,1.29s1.41.46,1.85.36l2.38-.62C51.53,38,51.42,37.12,51.31,36.64Z"/><path class="cls-1" d="M52.05,39.48h.14a.83.83,0,0,1-.49,1.44.81.81,0,0,1-.24,1.46.78.78,0,0,1-.58,1.34H47.48a5,5,0,0,1-2.67-.93c-1.44-1.21-.52-3.43.33-4,.67-.42,1.09-.8,1.6-.81L52,38A.76.76,0,1,1,52.05,39.48Z"/><path class="cls-1" d="M50.27,42.42l1.28,0-.08-.07.16-.07-1.35.12Zm1.94-2.93a.62.62,0,0,1,.12.12l-1.82-.07s1.18-.06,1.68-.07ZM52,40.83a.82.82,0,0,1-.29.09l.11.07-1.49,0S51.36,40.87,52,40.83Z"/><rect class="cls-4" x="43.07" y="38.16" width="3.36" height="5.43"/><path class="cls-1" d="M23,27.8l7.71,9.78H44.22v6.6l-14.51.13c-2.55,0-3.84-1.92-4.51-2.7l-7.73-9.13C14.35,28.79,20,24,23,27.8Z"/><path class="cls-1" d="M36.29,58.22h6.21c.85,0,1.26-.21,1.34.64l2.24,22.61A1.51,1.51,0,0,1,44.53,83H38.32a1.62,1.62,0,0,1-1.55-1.55l-2-21.7A1.51,1.51,0,0,1,36.29,58.22Z"/><path class="cls-1" d="M37.76,84.54a12.12,12.12,0,0,0-.75,3.1c0,1.17-.07,2.09.45,2.15l1.89.21c.34,0,.58-.38.64-.87.89-.09,2.67,1.25,4.87,1.49l5.33.6c1.1.12,3-.11,3.06-1.39s-3.14-2.18-5.37-3.13A8.58,8.58,0,0,1,45.2,84.5a1.62,1.62,0,0,1-.67.15H38.32A1.47,1.47,0,0,1,37.76,84.54Z"/><rect class="cls-2" y="65.47" width="31.89" height="6.87" rx="3.44" ry="3.44"/><rect class="cls-2" y="37.27" width="6.87" height="35.07" rx="3.44" ry="3.44"/><rect class="cls-2" x="14.75" y="68.53" width="2.4" height="19.49"/><path class="cls-2" d="M5.31,92.09a12.15,12.15,0,0,1,21.27,0H24a10,10,0,0,0-2.36-2.3,10,10,0,0,0-11.34,0,10.05,10.05,0,0,0-2.36,2.3Z"/><polygon class="cls-1" points="16.3 24.21 17.1 21.26 24.2 28.82 24.02 30.43 16.3 24.21"/><path class="cls-1" d="M129.05,54.83H98.91c-6.75,0-5.88,9.32,0,9.32h22.71C129.29,64.15,130.64,59.21,129.05,54.83Z"/><polygon class="cls-1" points="118.88 17.88 113.34 19.43 114.79 29.23 121.19 27.49 118.88 17.88"/><path class="cls-1" d="M114.1,29.52l1.85,25.3c5.18,0,8.79,1.51,13.69,3.22-.48-12.11-3.23-25-8.35-35.42C119.15,25.27,115.45,29.69,114.1,29.52Z"/><path class="cls-1" d="M86.71,36.64l3.4.67c.44.09,2,.85,2,1.29s-1.41.46-1.85.36l-2.38-.62C86.49,38,86.6,37.12,86.71,36.64Z"/><path class="cls-1" d="M86,39.48h-.14a.83.83,0,0,0,.49,1.44.81.81,0,0,0,.24,1.46.78.78,0,0,0,.58,1.34h3.41a5,5,0,0,0,2.67-.93c1.44-1.21.52-3.43-.33-4-.66-.42-1.09-.8-1.6-.81L86,38A.76.76,0,1,0,86,39.48Z"/><path class="cls-1" d="M87.75,42.42l-1.28,0,.08-.07-.16-.07,1.35.12Zm-1.94-2.93a.66.66,0,0,0-.12.12l1.82-.07s-1.18-.06-1.68-.07ZM86,40.83a.82.82,0,0,0,.29.09L86.2,41l1.49,0S86.67,40.87,86,40.83Z"/><rect class="cls-4" x="91.59" y="38.16" width="3.36" height="5.43"/><path class="cls-1" d="M115,27.8l-7.71,9.78H93.8v6.6l14.51.13c2.55,0,3.84-1.92,4.51-2.7l7.73-9.13C123.67,28.79,118,24,115,27.8Z"/><path class="cls-1" d="M101.73,58.22H95.51c-.85,0-1.21-.43-1.29.42L91.94,81.48A1.51,1.51,0,0,0,93.49,83H99.7a1.62,1.62,0,0,0,1.55-1.55l2-21.7A1.51,1.51,0,0,0,101.73,58.22Z"/><path class="cls-1" d="M100.38,84.48a11.61,11.61,0,0,1,.87,2.82c.11,1.17.22,2.08-.29,2.18l-1.87.35c-.34.06-.61-.34-.7-.83-.89,0-2.57,1.43-4.75,1.84l-5.28,1c-1.09.2-3,.1-3.16-1.17s3-2.39,5.13-3.5A9,9,0,0,0,93,84.57a1.59,1.59,0,0,0,.48.08H99.7A1.45,1.45,0,0,0,100.38,84.48Z"/><rect class="cls-2" x="106.28" y="65.47" width="31.89" height="6.87" rx="3.44" ry="3.44"/><path class="cls-1" d="M138.17,68.91V40.71a3.45,3.45,0,0,0-3.44-3.44h0a3.45,3.45,0,0,0-3.44,3.44V68.91a3.45,3.45,0,0,0,3.44,3.44h0A3.45,3.45,0,0,0,138.17,68.91Z"/><rect class="cls-2" x="121.03" y="68.53" width="2.4" height="19.49"/><path class="cls-2" d="M132.86,92.09a12.15,12.15,0,0,0-21.27,0h2.6a10.05,10.05,0,0,1,2.36-2.3,10,10,0,0,1,11.34,0,10,10,0,0,1,2.36,2.3Z"/><polygon class="cls-1" points="121.72 24.21 120.92 21.26 113.94 29.31 114 30.43 121.72 24.21"/><path class="cls-1" d="M109.94,21.19c-5.81-1.8-5.26-22.7,6.94-19,7.18,2.2,6.3,10.7,2.37,15.63C116.93,20.76,112.7,22,109.94,21.19Z"/><ellipse class="cls-2" cx="117.85" cy="13.23" rx="2.62" ry="1.46" transform="translate(91.75 128.92) rotate(-83.69)"/><polygon class="cls-3" points="16.27 21.89 17.73 19.27 24.57 27.13 24.25 29.32 16.27 21.89"/><polygon class="cls-3" points="121.59 21.26 120.08 19.13 113.23 26.99 114.14 28.89 121.59 21.26"/><rect class="cls-2" x="54.16" y="49.47" width="28.94" height="43.65"/><path class="cls-1" d="M97.36,4.08h0a.65.65,0,0,1,.61.8l-1.28,5.91a.91.91,0,0,1-1,.65h0a.65.65,0,0,1-.61-.8L96.4,4.74A.91.91,0,0,1,97.36,4.08Z"/><path class="cls-1" d="M93.8,17.52l3.34.66,1.46-2.86c.78-1.52.14-5.46-.09-7.21L96,8.41l-2.89,5Z"/><path class="cls-1" d="M93.64,14.24l.54.21.16-.6L95.65,9a1.13,1.13,0,0,0-.27-1.19c-.23-.23-.88-.56-1-.3L93,13A1.07,1.07,0,0,0,93.64,14.24Z"/><path class="cls-1" d="M94.6,7.43c-.1,0-.14,0-.15.07l-.29,1.1c.49.12.7-.42.68-.92A.4.4,0,0,0,94.6,7.43Z"/><path class="cls-1" d="M98.66,12.28h0a.56.56,0,0,1,.25.83l-.67,1a.79.79,0,0,1-1,.23h0a.56.56,0,0,1-.25-.83l.68-1A.79.79,0,0,1,98.66,12.28Z"/><path class="cls-1" d="M98.46,10h0a.65.65,0,0,1,.29,1l-.67,1a.91.91,0,0,1-1.13.26h0a.65.65,0,0,1-.29-1l.67-1A.91.91,0,0,1,98.46,10Z"/><path class="cls-1" d="M97.75,11h0a.52.52,0,0,1,.23.77l-.07.1a.73.73,0,0,1-.9.21h0a.52.52,0,0,1-.23-.77l.07-.1A.73.73,0,0,1,97.75,11Z"/><path class="cls-1" d="M98,13.2h0a.47.47,0,0,1,.21.7l-.06.09a.67.67,0,0,1-.82.19h0a.47.47,0,0,1-.21-.7l.06-.09A.67.67,0,0,1,98,13.2Z"/><path class="cls-1" d="M98.14,7.62h0a.65.65,0,0,1,.29,1l-.67,1a.91.91,0,0,1-1.13.26h0a.65.65,0,0,1-.29-1l.67-1A.91.91,0,0,1,98.14,7.62Z"/><path class="cls-1" d="M97.43,8.63h0a.52.52,0,0,1,.23.77l-.07.1a.73.73,0,0,1-.9.21h0a.52.52,0,0,1-.23-.77l.07-.1A.73.73,0,0,1,97.43,8.63Z"/><path class="cls-1" d="M93.8,17.52l2.38.47c.44-1.76.61-5-1.49-5.62a3.66,3.66,0,0,0-.83-.25l-.75,1.3Z"/><polygon class="cls-3" points="92.41 18.79 97.99 20.48 98.68 18.04 93.1 16.36 92.41 18.79"/><path class="cls-1" d="M77.88,28l-1.39-7.53s12.11,4.2,13.62,4.67l2.28-7.24h0l6.1,1.92h0L95,30.86a2.3,2.3,0,0,1-3.25,1.5c-4.63-1.47-9.26-2.92-13.89-4.37Z"/><rect class="cls-4" x="53.39" y="41.9" width="29.62" height="1.69"/></g></g></svg>