<svg xmlns="http://www.w3.org/2000/svg" viewBox="0 0 182.17 112.91"><defs><style>.cls-1,.cls-2{fill:#fff;}.cls-2,.cls-4{fill-rule:evenodd;}.cls-3,.cls-4{fill:#b3d157;}</style></defs><title>communication</title><g id="Layer_2" data-name="Layer 2"><g id="kiwi-home-page_Image" data-name="kiwi-home-page Image"><path class="cls-1" d="M15.1,82.1c-.84-2.79-3.36-4.52-5.59-3.84S6.14,81.76,7,84.55l1.83,6.07,8.46-1.34Z"/><path class="cls-1" d="M16.84,102.56c2.23-.67,3.38-3.51,2.53-6.29l-2.11-7L8.81,90.62l2.44,8.09C12.09,101.5,14.61,103.23,16.84,102.56Z"/><path class="cls-1" d="M17.27,83.86,8.8,85.2A6.82,6.82,0,0,1,1,79.55l-.92-5.8A6.82,6.82,0,0,1,5.74,66l8.48-1.35Z"/><path class="cls-1" d="M5.48,70.14l8.62-1.37-.52-3.28L5.86,66.71a6.05,6.05,0,0,0-5,6.92l0,.15A6,6,0,0,1,5.48,70.14Z"/><path class="cls-1" d="M15.88,79.94,7.41,81.29A6,6,0,0,1,1.69,79l.06.4a6.06,6.06,0,0,0,6.93,5l7.73-1.23Z"/><path class="cls-1" d="M17.27,83.86s14.63-3,34.43,10.08L43.8,44.22S32,61.79,14.21,64.61Z"/><path class="cls-1" d="M46,62.66,43.34,46.15c-3.27,4.31-13.62,16.41-28.26,19.09l1.34,8.43A140.12,140.12,0,0,0,46,62.66Z"/><path class="cls-1" d="M17.9,83c3.24-.42,16-1.19,32.79,9.39l-1.59-10a114.54,114.54,0,0,0-31.42-.77Z"/><path class="cls-1" d="M53.09,97.85a1.52,1.52,0,0,1-1.73-1.26L42.63,41.68A1.52,1.52,0,0,1,43.89,40l4-.64a1.52,1.52,0,0,1,1.73,1.26l8.73,54.91a1.51,1.51,0,0,1-1.26,1.73Z"/><path class="cls-1" d="M57.61,95.6,55.1,79.8l-5.51.88,2.51,15.8a.76.76,0,0,0,.87.63l4-.64A.76.76,0,0,0,57.61,95.6Z"/><path class="cls-1" d="M48.89,40.69a.76.76,0,0,0-.87-.63l-4,.64a.76.76,0,0,0-.63.87L46,58.25l5.51-.88Z"/><path class="cls-1" d="M62.75,58.33c.53-.5,1.09-.95,1.65-1.39L66.29,56l3.77-1.85,3.77-1.85,1.88-.92c.7-.17,1.39-.34,2.11-.46-.54.49-1.1.94-1.65,1.39l-1.88.92-3.77,1.85-3.77,1.85-1.88.93C64.17,58,63.47,58.21,62.75,58.33Z"/><path class="cls-1" d="M58.25,62.58c.48-.49,1-.93,1.51-1.36l1.75-.89,3.5-1.8,3.5-1.8,1.75-.9c.66-.16,1.31-.32,2-.44-.49.48-1,.92-1.51,1.36l-1.75.9-3.5,1.8L62,61.24l-1.75.9C59.59,62.31,58.93,62.47,58.25,62.58Z"/><path class="cls-1" d="M62.62,68.19c1.28-.4,2.58-.74,3.87-1.11l1-.27a10,10,0,0,1,1-.18l2-.35,7.89-1.39v1l-8.82-1.6-3.31-.6,3.33-.42,7.81-1a32.42,32.42,0,0,1,3.92-.39c1.32,0,2.63-.09,4-.09-1.28.33-2.57.61-3.85.9a32.4,32.4,0,0,1-3.89.61l-7.81,1,0-1,8.82,1.6,2.85.52-2.85.5L70.6,67.3l-2,.35a10,10,0,0,1-1,.17l-1,.08C65.3,68,64,68.12,62.62,68.19Z"/><path class="cls-1" d="M67.79,73c.73-.14,1.44-.22,2.16-.3l2.11.22,4.22.44,4.22.44L82.6,74c.69.23,1.37.45,2.06.73-.72.13-1.44.21-2.16.3l-2.11-.22-4.22-.44L71.95,74l-2.11-.21C69.15,73.53,68.47,73.3,67.79,73Z"/><path class="cls-1" d="M60.8,74.59c.68-.15,1.36-.24,2-.33l2,.19,4,.38,4,.38,2,.19c.65.22,1.3.43,1.94.7-.68.14-1.36.23-2,.33l-2-.19-4-.38-4-.38-2-.18C62.09,75.09,61.44,74.87,60.8,74.59Z"/><path class="cls-1" d="M106.89,47.88a10.64,10.64,0,0,0-13.22,7.2,10.79,10.79,0,0,0-.38,2l-7.38,2.37,8,2.36a10.64,10.64,0,1,0,13-13.89Z"/><path class="cls-2" d="M160.54,56.82h0l-1.79,4.62h0a1,1,0,0,1-1.79.28h0l-3.11-3.86a3.93,3.93,0,1,1,6.72-1Zm-3.88-2.87a1.47,1.47,0,1,0,1.68,1.23A1.47,1.47,0,0,0,156.66,53.95Z"/><path class="cls-1" d="M64.89,37.89a3.49,3.49,0,0,0,3.36-2.78l-7.19.72A3.48,3.48,0,0,0,64.89,37.89Z"/><path class="cls-1" d="M60.6,33.86l7.69-.77c0-.42-.05-.81-.07-1.18l-7.8.78C60.5,33.06,60.55,33.45,60.6,33.86Z"/><path class="cls-1" d="M70.47,20.52a6.67,6.67,0,0,0-7.89-5.88A6.69,6.69,0,0,0,56,22c.42,4.67,3.17,3.73,4.36,10.28l7.86-.78C68.1,24.8,71,25.18,70.47,20.52Z"/><path class="cls-1" d="M60.68,34.6a4.15,4.15,0,0,0,.19.78l7.45-.74a4,4,0,0,0,0-.81c0-.1,0-.19,0-.29l-7.69.76C60.66,34.41,60.68,34.5,60.68,34.6Z"/><path class="cls-1" d="M127,51.9a5.33,5.33,0,0,1-2-1.27c-.78-.69-1.46-1.29-2.55-1.1l-.18-1a3.85,3.85,0,0,1,3.42,1.34c.78.69,1.46,1.29,2.55,1.1s1.52-1,2-1.91a3.51,3.51,0,0,1,6.17-1.1c.78.69,1.46,1.29,2.55,1.1s1.52-1,2-1.91A3.52,3.52,0,0,1,147.2,46c.78.69,1.46,1.29,2.55,1.1s1.52-1,2-1.91a3.52,3.52,0,0,1,6.17-1.1c.78.69,1.46,1.29,2.55,1.09s1.52-1,2-1.91a3.52,3.52,0,0,1,6.17-1.1c.78.69,1.46,1.29,2.56,1.1s1.53-1,2-1.91a3.52,3.52,0,0,1,6.18-1.1c.78.69,1.46,1.29,2.56,1.09l.18,1A3.86,3.86,0,0,1,178.74,41c-.78-.69-1.46-1.29-2.56-1.09s-1.52,1-2,1.91A3.52,3.52,0,0,1,168,43c-.78-.69-1.46-1.29-2.56-1.1s-1.52,1-2,1.91a3.52,3.52,0,0,1-6.17,1.1c-.78-.69-1.46-1.29-2.55-1.1s-1.52,1-2,1.91a3.52,3.52,0,0,1-6.17,1.1c-.78-.69-1.46-1.29-2.55-1.1s-1.52,1-2,1.91a3.52,3.52,0,0,1-6.17,1.1c-.78-.69-1.46-1.29-2.55-1.09s-1.52,1-2,1.91A3.85,3.85,0,0,1,128.46,52,3.1,3.1,0,0,1,127,51.9Z"/><rect class="cls-1" x="156.67" y="68.44" width="1.04" height="22.05" transform="translate(36.49 207.74) rotate(-73.56)"/><path class="cls-1" d="M109.93,83.84a14.83,14.83,0,0,0-15.52,4.65l-5.09-2,3.13,5a14.83,14.83,0,1,0,17.48-7.64Z"/><rect class="cls-3" x="100.6" y="102.8" width="3.04" height="2.55" transform="translate(-29.39 41.11) rotate(-19.96)"/><rect class="cls-3" x="104.07" y="99.41" width="3.04" height="4.62" transform="translate(-28.41 42.23) rotate(-19.99)"/><rect class="cls-3" x="107.76" y="95.93" width="3.04" height="6.62" transform="translate(-27.33 43.31) rotate(-19.98)"/><polygon class="cls-4" points="97.55 100.05 99.93 95.56 103.31 96.86 104.94 92.45 103.77 91.91 106.83 89.31 107.48 93.21 106.28 92.93 104.19 98.74 100.71 97.35 98.99 100.63 97.55 100.05"/><rect class="cls-1" x="124.94" y="7.24" width="26.14" height="2.07" transform="translate(12.54 66.34) rotate(-28.26)"/><path class="cls-1" d="M102,.65A15.79,15.79,0,0,0,87.33,27.84l-3.23,8,6.73-5.78A15.79,15.79,0,1,0,102,.65Z"/><path class="cls-4" d="M95.83,23.61a6.9,6.9,0,0,1-4.81-8l5.49,1.62A1.73,1.73,0,0,0,98.66,16l1.62-5.49a6.91,6.91,0,0,1-4.45,13.06Zm-.09-7.83-1.66-.49-2.73-.81-1.1-.33a8,8,0,0,1,9.26-5l-.33,1.11L98.37,13l-.49,1.66A1.73,1.73,0,0,1,95.74,15.78Z"/><circle class="cls-1" cx="125.53" cy="27.02" r="6.62" transform="translate(57.3 135.8) rotate(-70.05)"/><path class="cls-4" d="M124.42,29.57l-.79-4.49a.66.66,0,0,1,0-.31.16.16,0,0,1,0,0,.37.37,0,0,1,.44-.27L128.28,26a.37.37,0,0,1,.16.48h0a.66.66,0,0,1-.18.28l-3.48,2.93A.2.2,0,0,1,124.42,29.57Z"/><circle class="cls-1" cx="136.48" cy="103.34" r="6.01" transform="translate(-33.43 124.22) rotate(-44.14)"/><path class="cls-1" d="M134.38,110.4a7.31,7.31,0,0,1-3.18-1.93h0a7.32,7.32,0,1,1,3.19,1.93Zm-.21-4.82a3.22,3.22,0,1,0,.07-4.55,3.2,3.2,0,0,0-.07,4.55Z"/><path class="cls-3" d="M132.53,105.48l.89-.54a3,3,0,0,1-.43-1.58l.72-.15a2.74,2.74,0,0,0,.39,1.5,1.08,1.08,0,0,0,1.5.52c.48-.29.57-.82.44-1.63-.19-1.11-.12-1.91.64-2.37a1.69,1.69,0,0,1,2.22.47l.89-.54.33.54-.85.52a2.74,2.74,0,0,1,.39,1.33l-.71.13a2.48,2.48,0,0,0-.37-1.29.94.94,0,0,0-1.32-.47c-.46.28-.49.74-.34,1.7.18,1.13,0,1.86-.78,2.34a1.79,1.79,0,0,1-2.34-.48l-.91.56Z"/><path class="cls-2" d="M136.87,73.89l2.9.85a11.16,11.16,0,0,0-.89-8l-2.63,1.49A8.15,8.15,0,0,1,136.87,73.89Z"/><path class="cls-2" d="M130.93,63.94l.85-2.9a11.17,11.17,0,0,0-7.94.85l1.41,2.67A8.16,8.16,0,0,1,130.93,63.94Z"/><path class="cls-2" d="M121.08,69.56a8.16,8.16,0,0,1,3.64-4.7l-1.41-2.67a11.2,11.2,0,0,0,2.14,20.34l.85-2.9A8.2,8.2,0,0,1,121.08,69.56Z"/><path class="cls-2" d="M135.95,67.66l2.63-1.49a11.16,11.16,0,0,0-6.21-5l-.85,2.9A8.16,8.16,0,0,1,135.95,67.66Z"/><path class="cls-2" d="M126.88,79.81l-.85,2.9a11.21,11.21,0,0,0,13.57-7.37l-2.9-.85A8.2,8.2,0,0,1,126.88,79.81Z"/></g></g></svg>