<svg xmlns="http://www.w3.org/2000/svg" xmlns:xlink="http://www.w3.org/1999/xlink" viewBox="0 0 104.92 111.99"><defs><style>.cls-1{fill:none;}.cls-2{fill:#fff;}.cls-3{fill:#ed731a;}.cls-4{fill:#fad0b3;}.cls-5{clip-path:url(#clip-path);}.cls-6{clip-path:url(#clip-path-2);}</style><clipPath id="clip-path"><path class="cls-1" d="M91.29,62.68l-1.55,2a.79.79,0,0,0,0,.9l1.55,2a.39.39,0,0,0,.66,0l1.55-2a.79.79,0,0,0,0-.9l-1.55-2A.39.39,0,0,0,91.29,62.68Z"/></clipPath><clipPath id="clip-path-2"><path class="cls-1" d="M91.24,79.59l-1.79-2.35a.89.89,0,0,1-.15-.67c0-.16.63-3.3.85-4.7v0l.66-4.08L91.1,66l.13-.83v0a.45.45,0,0,1,.77,0l.11.67C92.2,66.36,94,76.52,94,76.7a.94.94,0,0,1,0,.29s-.08.24-.12.24L92,79.59A.45.45,0,0,1,91.24,79.59Z"/></clipPath></defs><title>consultancy</title><g id="Layer_2" data-name="Layer 2"><g id="kiwi-home-page_Image" data-name="kiwi-home-page Image"><path class="cls-2" d="M104.64,63.6h-21L76,74.05a.27.27,0,0,1-.12.08l-8,2.64A2.69,2.69,0,0,0,66.07,80a2.53,2.53,0,0,0,3.15,1.82c1.95-.66,10-3.23,10.53-3.81,0,0,3.11-3.72,4.71-5.48a.27.27,0,0,1,.48.19l0,16.19v19.92a3.05,3.05,0,0,0,3.08,3h0a3.06,3.06,0,0,0,3.09-3V90.73a.27.27,0,0,1,.27-.27h.73a.27.27,0,0,1,.27.27v18.12a3,3,0,0,0,3,3h0a3,3,0,0,0,3-3V72.35a.43.43,0,0,1,.46-.42h0a.41.41,0,0,1,.37.42V86.08a2.79,2.79,0,0,0,5.57,0V63.88A.27.27,0,0,0,104.64,63.6Z"/><circle class="cls-2" cx="12.48" cy="55.54" r="6.03"/><path class="cls-2" d="M18.8,63.83a.42.42,0,0,0,.36-.2l9-14.42a2.79,2.79,0,0,1,3.8-.74,2.61,2.61,0,0,1,.76,3.69L20.05,71.88a.42.42,0,0,0-.07.23V109a3,3,0,0,1-3.07,3h0a3,3,0,0,1-3.06-3V91a.42.42,0,0,0-.42-.42H13a.42.42,0,0,0-.42.42v18a3,3,0,0,1-3.07,3h0a3,3,0,0,1-3.05-3V72.53a.42.42,0,0,0-.45-.42h0a.42.42,0,0,0-.39.42V86.26a2.72,2.72,0,0,1-2.76,2.66A2.72,2.72,0,0,1,0,86.26v-22a.42.42,0,0,1,.42-.42Z"/><path class="cls-3" d="M6,54.37a1.15,1.15,0,0,1-1.14-1.16,1.17,1.17,0,0,1,.46-.93,7.09,7.09,0,0,1,14.08-.2h.33a1.14,1.14,0,1,1,0,2.28Z"/><path class="cls-4" d="M12.34,46.63a6.42,6.42,0,0,1,6.42,6.13h.93a.47.47,0,1,1,0,.93H6a.48.48,0,0,1,0-1,6.44,6.44,0,0,1,6.42-6.1m0-1.35A7.7,7.7,0,0,0,7,47.38,7.93,7.93,0,0,0,4.65,52,1.83,1.83,0,0,0,6,55H19.69a1.82,1.82,0,0,0,.24-3.62,7.9,7.9,0,0,0-2.27-4,7.7,7.7,0,0,0-5.32-2.1Z"/><circle class="cls-2" cx="92.16" cy="55.63" r="6.03"/><path class="cls-2" d="M81.34,30.9a19.93,19.93,0,1,0-6.86,27.34A19.93,19.93,0,0,0,81.34,30.9ZM72.12,54.29a15.33,15.33,0,1,1,5.28-21A15.33,15.33,0,0,1,72.12,54.29Z"/><polygon class="cls-2" points="52.59 27.85 58.04 24.58 53.29 19.89 50.69 21.45 52.59 27.85"/><polygon class="cls-2" points="47.69 47.35 50.95 52.8 44.56 54.69 43 52.09 47.69 47.35"/><polygon class="cls-2" points="75.91 54.43 70.45 57.69 75.2 62.38 77.8 60.82 75.91 54.43"/><polygon class="cls-2" points="80.8 34.93 77.54 29.48 83.93 27.58 85.49 30.19 80.8 34.93"/><polygon class="cls-2" points="46.57 39.98 48.11 33.81 41.53 33.87 40.79 36.81 46.57 39.98"/><polygon class="cls-2" points="56.92 57.27 63.08 58.81 59.92 64.59 56.98 63.86 56.92 57.27"/><polygon class="cls-2" points="81.92 42.3 80.38 48.46 86.96 48.4 87.7 45.46 81.92 42.3"/><polygon class="cls-2" points="71.57 25.01 65.41 23.46 68.57 17.68 71.51 18.42 71.57 25.01"/><polygon class="cls-2" points="48.31 33.4 52.06 28.28 45.94 25.85 44.15 28.3 48.31 33.4"/><polygon class="cls-2" points="51.38 53.32 56.51 57.08 51.4 61.24 48.96 59.45 51.38 53.32"/><polygon class="cls-2" points="80.18 48.87 76.43 54 82.55 56.42 84.34 53.98 80.18 48.87"/><polygon class="cls-2" points="77.11 28.95 71.98 25.2 77.09 21.04 79.53 22.83 77.11 28.95"/><polygon class="cls-2" points="47.51 46.94 46.54 40.66 40.49 43.27 40.95 46.27 47.51 46.94"/><polygon class="cls-2" points="63.77 58.85 70.05 57.88 69.38 64.43 66.38 64.89 63.77 58.85"/><polygon class="cls-2" points="80.98 35.34 81.95 41.62 88 39 87.54 36.01 80.98 35.34"/><polygon class="cls-2" points="64.72 23.43 58.45 24.4 59.11 17.85 62.11 17.38 64.72 23.43"/><path class="cls-2" d="M42.17,17.46A17.35,17.35,0,1,0,32,39.79,17.35,17.35,0,0,0,42.17,17.46ZM30.61,36a13.34,13.34,0,1,1,7.81-17.18A13.34,13.34,0,0,1,30.61,36Z"/><polygon class="cls-2" points="18.03 10.37 23.21 8.43 19.86 3.63 17.39 4.56 18.03 10.37"/><polygon class="cls-2" points="10.8 26.27 12.74 31.45 6.93 32.09 6 29.61 10.8 26.27"/><polygon class="cls-2" points="33.82 36.72 28.64 38.66 31.98 43.45 34.45 42.53 33.82 36.72"/><polygon class="cls-2" points="41.03 20.84 39.09 15.66 44.9 15.03 45.83 17.5 41.03 20.84"/><polygon class="cls-2" points="10.97 19.79 13.26 14.76 7.61 13.78 6.52 16.18 10.97 19.79"/><polygon class="cls-2" points="17.13 36.22 22.17 38.51 18.55 42.96 16.15 41.87 17.13 36.22"/><polygon class="cls-2" points="40.88 27.31 38.59 32.35 44.24 33.33 45.33 30.93 40.88 27.31"/><polygon class="cls-2" points="34.72 10.89 29.69 8.6 33.3 4.15 35.7 5.24 34.72 10.89"/><polygon class="cls-2" points="13.49 14.44 17.51 10.64 12.64 7.6 10.73 9.41 13.49 14.44"/><polygon class="cls-2" points="13.01 31.97 16.81 35.99 11.79 38.75 9.97 36.84 13.01 31.97"/><polygon class="cls-2" points="38.36 32.67 34.35 36.47 39.21 39.51 41.13 37.69 38.36 32.67"/><polygon class="cls-2" points="38.84 15.13 35.04 11.12 40.06 8.35 41.88 10.27 38.84 15.13"/><polygon class="cls-2" points="10.69 25.9 10.84 20.37 5.25 21.67 5.18 24.3 10.69 25.9"/><polygon class="cls-2" points="22.75 38.64 28.27 38.79 26.68 44.3 24.04 44.23 22.75 38.64"/><polygon class="cls-2" points="41.17 21.21 41.01 26.73 46.6 25.44 46.67 22.8 41.17 21.21"/><polygon class="cls-2" points="29.11 8.47 23.58 8.31 25.18 2.81 27.81 2.88 29.11 8.47"/><path class="cls-2" d="M56.76,71.16A10,10,0,1,0,47.56,82,10,10,0,0,0,56.76,71.16ZM47.32,79a7,7,0,1,1,6.45-7.58A7,7,0,0,1,47.32,79Z"/><polygon class="cls-2" points="42.17 64.73 47.1 63.41 44.59 59.18 42.23 59.81 42.17 64.73"/><polygon class="cls-2" points="38.19 71.61 39.51 76.54 34.59 76.48 33.96 74.13 38.19 71.61"/><polygon class="cls-2" points="51.33 79.19 46.4 80.51 48.91 84.74 51.27 84.11 51.33 79.19"/><polygon class="cls-2" points="55.3 72.33 53.98 67.4 58.9 67.46 59.53 69.82 55.3 72.33"/><polygon class="cls-2" points="38.39 70.08 40.95 65.67 36.18 64.45 34.96 66.56 38.39 70.08"/><polygon class="cls-2" points="40.45 77.76 44.87 80.32 41.34 83.75 39.24 82.53 40.45 77.76"/><polygon class="cls-2" points="55.1 73.83 52.55 78.25 57.32 79.47 58.53 77.36 55.1 73.83"/><polygon class="cls-2" points="53.05 66.17 48.64 63.62 52.16 60.19 54.27 61.4 53.05 66.17"/><path class="cls-2" d="M59.15,84.85A2.13,2.13,0,1,0,58.64,89h0a2.12,2.12,0,0,0,.52-4.17Z"/><path class="cls-2" d="M60.18,80.77a6.35,6.35,0,1,0,4.61,7.7A6.35,6.35,0,0,0,60.18,80.77Zm1.49,6.9a3.1,3.1,0,0,1-3,2.35h0a3.11,3.11,0,1,1,2.68-4.7A3.06,3.06,0,0,1,61.66,87.67Z"/><polygon class="cls-2" points="53.64 88.57 54.02 84.43 50.49 85.2 50.31 87.17 53.64 88.57"/><polygon class="cls-2" points="56.1 91.55 60.24 91.93 58.84 95.26 56.87 95.07 56.1 91.55"/><polygon class="cls-2" points="63.62 85.28 63.24 89.41 66.76 88.65 66.94 86.67 63.62 85.28"/><polygon class="cls-2" points="61.16 82.34 57.03 81.96 58.42 78.63 60.4 78.81 61.16 82.34"/><polygon class="cls-2" points="56.25 91.62 53.59 88.42 51.64 91.46 52.91 92.98 56.25 91.62"/><polygon class="cls-2" points="60.1 91.98 63.29 89.33 64.66 92.67 63.13 93.94 60.1 91.98"/><polygon class="cls-2" points="60.98 82.24 63.63 85.43 65.58 82.4 64.32 80.87 60.98 82.24"/><polygon class="cls-2" points="57.16 81.89 53.97 84.55 52.61 81.21 54.13 79.94 57.16 81.89"/><path class="cls-2" d="M73.54,8.87a2.13,2.13,0,1,0,1.76,2.45,2.13,2.13,0,0,0-1.76-2.45Z"/><path class="cls-2" d="M74.22,4.71A6.35,6.35,0,1,0,79.46,12,6.35,6.35,0,0,0,74.22,4.71Zm2.06,6.77a3.12,3.12,0,1,1-.55-2.33A3.12,3.12,0,0,1,76.27,11.48Z"/><polygon class="cls-2" points="68.35 13.03 68.39 8.88 64.94 9.93 64.92 11.91 68.35 13.03"/><polygon class="cls-2" points="71.05 15.79 75.21 15.83 74.09 19.26 72.11 19.24 71.05 15.79"/><polygon class="cls-2" points="78.02 8.92 77.99 13.07 81.44 12.01 81.45 10.03 78.02 8.92"/><polygon class="cls-2" points="75.33 6.19 71.18 6.16 72.29 2.73 74.27 2.74 75.33 6.19"/><polygon class="cls-2" points="71.21 15.85 68.3 12.89 66.6 16.08 67.99 17.49 71.21 15.85"/><polygon class="cls-2" points="75.07 15.89 78.03 12.98 79.67 16.2 78.26 17.59 75.07 15.89"/><polygon class="cls-2" points="75.14 6.11 78.05 9.07 79.74 5.88 78.35 4.47 75.14 6.11"/><polygon class="cls-2" points="71.31 6.08 68.35 9 66.71 5.78 68.12 4.39 71.31 6.08"/><g class="cls-5"><rect class="cls-4" x="89.55" y="62.44" width="4.14" height="5.45"/><circle class="cls-4" cx="91.62" cy="65.17" r="2.37"/><circle class="cls-4" cx="91.62" cy="65.17" r="1.18"/></g><g class="cls-6"><rect class="cls-4" x="89.26" y="64.85" width="4.7" height="15.02"/><path class="cls-4" d="M94,72.36v4.85h.2l-.48.23a5.53,5.53,0,0,1-4.29,0L89,77.21h.18v-9.7H89l.48-.23a5.53,5.53,0,0,1,4.29,0l.48.23H94Z"/><circle class="cls-4" cx="91.62" cy="72.36" r="2.76"/></g><path class="cls-3" d="M43.65,66.21l-.31.16-.16.08-.17.1-.19.11-.21.15-.23.16-.23.19a3.1,3.1,0,0,0-.24.21c-.08.08-.16.15-.24.23l-.23.25c-.08.09-.15.18-.23.27l-.11.14-.1.15c-.07.1-.14.2-.21.3l-.19.32c-.06.11-.11.22-.17.33l-.08.16-.07.17c0,.11-.09.22-.13.33s-.15.43-.19.64l-.07.3,0,.29a4.78,4.78,0,0,0-.06.51l0,.22v.53l0-.35,0-.18v-.22a4.89,4.89,0,0,1,0-.52V71c0-.1,0-.21,0-.32s.07-.45.12-.69.06-.24.1-.36l.05-.18.06-.18c0-.12.08-.25.13-.37l.16-.36c.05-.12.12-.23.18-.35l.09-.17.1-.17c.07-.11.13-.22.21-.33l.22-.31c.07-.1.16-.19.23-.29s.15-.19.23-.27l.23-.24.23-.21.22-.19.21-.17.19-.15.15-.11.29-.2a.5.5,0,1,1,.56.82Z"/><polygon class="cls-3" points="42.22 64.14 46.18 64.95 43.5 67.98 42.22 64.14"/><path class="cls-3" d="M74.51,28.64l.16.15.19.18.12.12.14.14.33.34.36.4.4.47.42.54c.28.38.57.8.85,1.27a15.68,15.68,0,0,1,.8,1.49,15.88,15.88,0,0,1,1.16,3.45,15.72,15.72,0,0,1,.34,3.59c0,.29,0,.57,0,.84s-.05.54-.08.8,0,.26-.06.38,0,.25-.06.37-.09.47-.14.7c-.1.44-.21.84-.32,1.2l-.16.49-.15.41-.07.17-.06.15-.1.24-.08.2.06-.21.08-.25,0-.16,0-.18.11-.42.11-.5c.08-.36.15-.76.21-1.2,0-.22,0-.45.08-.69s0-.24,0-.37,0-.25,0-.38,0-.52,0-.78,0-.54,0-.81A15.33,15.33,0,0,0,79,39.09a15.08,15.08,0,0,0-.42-1.69,15.31,15.31,0,0,0-.61-1.62,15.14,15.14,0,0,0-.77-1.49,14.37,14.37,0,0,0-.86-1.3c-.29-.4-.59-.75-.88-1.07L75,31.48l-.39-.39-.36-.33L74,30.5l-.13-.11-.13-.1-.2-.16L73.34,30a.9.9,0,0,1,1.11-1.42Z"/><polygon class="cls-3" points="72.92 32.81 69.73 26.86 76.47 27.08 72.92 32.81"/><path class="cls-3" d="M18.3,13.51l-.16.11-.19.14-.12.09-.12.09-.28.22-.33.28-.36.33-.39.39c-.26.28-.54.59-.81.93a12.57,12.57,0,0,0-.8,1.13,13.3,13.3,0,0,0-.72,1.3A13.45,13.45,0,0,0,13.46,20a13.23,13.23,0,0,0-.41,1.5A13.43,13.43,0,0,0,12.83,23c0,.24,0,.49,0,.72s0,.47,0,.7,0,.45,0,.66,0,.42.06.62c0,.39.11.75.17,1.07l.1.44.1.37,0,.16,0,.14.07.22.06.18-.07-.18-.09-.21-.05-.14-.06-.16L13,27.19l-.13-.44c-.09-.31-.18-.67-.27-1.07,0-.2-.07-.41-.11-.62s-.06-.44-.09-.67,0-.47-.05-.71,0-.49,0-.75a13.67,13.67,0,0,1,.39-3.17,13.79,13.79,0,0,1,1.13-3,13.64,13.64,0,0,1,.76-1.3c.26-.4.53-.76.79-1.09l.39-.46.37-.4.34-.34.3-.29.13-.12.11-.1.17-.15.15-.13a.73.73,0,0,1,1,1.11Z"/><polygon class="cls-3" points="15.85 11.08 21.24 11.06 18.56 15.74 15.85 11.08"/><path class="cls-3" d="M54.73,90.41a4.49,4.49,0,0,1-1-2.1,4.29,4.29,0,0,1,.17-2.25A4.12,4.12,0,0,0,54,88.22a4,4,0,0,0,1.18,1.72.34.34,0,0,1-.43.51l0,0Z"/><polygon class="cls-3" points="55.44 88.61 56.82 91.24 53.85 91.12 55.44 88.61"/><path class="cls-3" d="M76.08,7.06a4,4,0,0,1,1,.72,4.25,4.25,0,0,1,.79,1,5,5,0,0,1,.45,1.26l.07.33c0,.11,0,.23,0,.34s0,.23,0,.34,0,.23-.06.34a.5.5,0,0,1-1-.12v0a2.55,2.55,0,0,1,0-.27,2.58,2.58,0,0,1,0-.27c0-.09,0-.18,0-.27s0-.18,0-.28a3.54,3.54,0,0,0-.19-1.1,4.16,4.16,0,0,0-.5-1,4.53,4.53,0,0,0-.79-.9.05.05,0,0,1,.05-.08Z"/><polygon class="cls-3" points="76.85 10.61 77.29 12.94 79.09 11.4 76.85 10.61"/><path class="cls-2" d="M26.4,29.16a5.63,5.63,0,1,1,5.14-6.08A5.63,5.63,0,0,1,26.4,29.16Zm-.68-8.07a2.47,2.47,0,1,0,2.67,2.26A2.48,2.48,0,0,0,25.72,21.09Z"/><path class="cls-2" d="M65,47.58a6.48,6.48,0,1,1,5.91-7A6.48,6.48,0,0,1,65,47.58Zm-.78-9.31a2.87,2.87,0,1,0,3.1,2.62A2.87,2.87,0,0,0,64.25,38.27Z"/><path class="cls-2" d="M61.23,6.6a7.81,7.81,0,1,0-4.57,10.06A7.81,7.81,0,0,0,61.23,6.6Zm-5.37,7.94a5.55,5.55,0,1,1,3.25-7.15A5.55,5.55,0,0,1,55.86,14.54Z"/><polygon class="cls-2" points="50.35 3.41 52.69 2.53 51.18 0.37 50.07 0.79 50.35 3.41"/><polygon class="cls-2" points="47.1 10.57 47.97 12.9 45.36 13.19 44.94 12.07 47.1 10.57"/><polygon class="cls-2" points="57.47 15.27 55.13 16.15 56.64 18.31 57.75 17.89 57.47 15.27"/><polygon class="cls-2" points="60.72 8.12 59.84 5.79 62.46 5.5 62.88 6.62 60.72 8.12"/><polygon class="cls-2" points="47.18 7.65 48.21 5.38 45.66 4.94 45.17 6.02 47.18 7.65"/><polygon class="cls-2" points="49.95 15.05 52.22 16.08 50.59 18.08 49.51 17.59 49.95 15.05"/><polygon class="cls-2" points="60.65 11.04 59.62 13.3 62.16 13.75 62.65 12.66 60.65 11.04"/><polygon class="cls-2" points="57.87 3.64 55.6 2.61 57.23 0.6 58.31 1.09 57.87 3.64"/><polygon class="cls-2" points="48.31 5.24 50.12 3.53 47.93 2.16 47.07 2.98 48.31 5.24"/><polygon class="cls-2" points="48.09 13.14 49.81 14.95 47.54 16.19 46.73 15.33 48.09 13.14"/><polygon class="cls-2" points="59.51 13.45 57.7 15.16 59.9 16.53 60.76 15.71 59.51 13.45"/><polygon class="cls-2" points="59.73 5.55 58.02 3.74 60.28 2.5 61.1 3.36 59.73 5.55"/><polygon class="cls-2" points="47.05 10.4 47.12 7.91 44.6 8.49 44.57 9.68 47.05 10.4"/><polygon class="cls-2" points="52.48 16.14 54.97 16.21 54.25 18.69 53.06 18.66 52.48 16.14"/><polygon class="cls-2" points="60.77 8.29 60.71 10.78 63.22 10.19 63.26 9.01 60.77 8.29"/><polygon class="cls-2" points="55.34 2.55 52.85 2.48 53.57 0 54.76 0.03 55.34 2.55"/><path class="cls-3" d="M59.88,9.25l0,.29s0,.09,0,.15l0,.19,0,.22-.05.23c0,.08,0,.16-.06.25l-.08.26a2.8,2.8,0,0,1-.1.27l-.05.14s0,.09-.06.14l-.13.28-.07.14L59.1,12l-.08.14-.09.13-.18.27-.2.25-.1.12-.11.12-.11.12-.11.11-.22.21c-.16.12-.3.25-.45.35l-.22.15L57,14l-.1.06,0,0,0,0-.18.09-.16.08-.14.06-.27.1.25-.13.13-.07.15-.09.17-.11,0,0,0,0,.09-.07.19-.14.2-.17c.14-.11.26-.25.4-.38l.19-.22.1-.11.09-.12.09-.12.09-.12.16-.26c.05-.09.09-.18.14-.27l.07-.13.06-.14.06-.14.05-.14.09-.27a1.38,1.38,0,0,0,0-.13L59,11a2.41,2.41,0,0,0,.06-.26l0-.24c0-.08,0-.16,0-.23s0-.14,0-.21V9.67c0-.05,0-.1,0-.15V9.23a.36.36,0,1,1,.73,0A.37.37,0,0,1,59.88,9.25Z"/><polygon class="cls-3" points="58.13 9.91 59.1 7.23 60.93 9.41 58.13 9.91"/><path class="cls-2" d="M54.15,11.9a2.54,2.54,0,1,1,2.32-2.74A2.54,2.54,0,0,1,54.15,11.9Zm-.28-3.39a.86.86,0,1,0,.93.79A.86.86,0,0,0,53.86,8.51Z"/><path class="cls-2" d="M46.72,75.86A3.87,3.87,0,1,1,50.58,72,3.87,3.87,0,0,1,46.72,75.86Zm0-5.48A1.61,1.61,0,1,0,48.33,72,1.62,1.62,0,0,0,46.72,70.38Z"/></g></g></svg>