<svg xmlns="http://www.w3.org/2000/svg" xmlns:xlink="http://www.w3.org/1999/xlink" viewBox="0 0 16 16"><defs><style>.cls-1{fill:#55a546;}.cls-1,.cls-10,.cls-11,.cls-12,.cls-13,.cls-14,.cls-15,.cls-16,.cls-17,.cls-18,.cls-19,.cls-2,.cls-20,.cls-21,.cls-22,.cls-23,.cls-24,.cls-25,.cls-26,.cls-27,.cls-28,.cls-29,.cls-3,.cls-30,.cls-31,.cls-32,.cls-33,.cls-36,.cls-37,.cls-38,.cls-39,.cls-4,.cls-40,.cls-41,.cls-5,.cls-6,.cls-7,.cls-8,.cls-9{fill-rule:evenodd;}.cls-2{fill:#4f1211;}.cls-3{fill:url(#GradientFill_1);}.cls-4{fill:url(#GradientFill_2);}.cls-5{fill:url(#GradientFill_2-2);}.cls-6{fill:url(#GradientFill_2-3);}.cls-7{fill:url(#GradientFill_2-4);}.cls-8{fill:url(#GradientFill_2-5);}.cls-9{fill:url(#GradientFill_2-6);}.cls-10{fill:url(#GradientFill_2-7);}.cls-11{fill:url(#GradientFill_2-8);}.cls-12{fill:url(#GradientFill_2-9);}.cls-13{fill:url(#GradientFill_2-10);}.cls-14{fill:url(#GradientFill_2-11);}.cls-15{fill:url(#GradientFill_2-12);}.cls-16{fill:url(#GradientFill_2-13);}.cls-17{fill:url(#GradientFill_2-14);}.cls-18{fill:url(#GradientFill_2-15);}.cls-19{fill:url(#GradientFill_2-16);}.cls-20{fill:url(#GradientFill_2-17);}.cls-21{fill:url(#GradientFill_2-18);}.cls-22{fill:url(#GradientFill_2-19);}.cls-23{fill:url(#GradientFill_2-20);}.cls-24{fill:url(#GradientFill_2-21);}.cls-25{fill:url(#GradientFill_2-22);}.cls-26{fill:url(#GradientFill_2-23);}.cls-27{fill:url(#GradientFill_2-24);}.cls-28{fill:url(#GradientFill_2-25);}.cls-29{fill:url(#GradientFill_2-27);}.cls-30{fill:url(#GradientFill_2-28);}.cls-31{fill:url(#GradientFill_2-29);}.cls-32{fill:url(#GradientFill_2-30);}.cls-33{fill:url(#GradientFill_2-31);}.cls-34,.cls-41{fill:#020202;}.cls-35{fill:#fff;}.cls-36{fill:url(#GradientFill_2-32);}.cls-37{fill:url(#GradientFill_2-33);}.cls-38{fill:url(#GradientFill_2-34);}.cls-39{fill:url(#GradientFill_2-35);}.cls-40{fill:#f4eeb2;}.cls-42{fill:#8fa64a;}</style><radialGradient id="GradientFill_1" cx="8" cy="7.51" r="7.79" gradientUnits="userSpaceOnUse"><stop offset="0" stop-color="#fff"/><stop offset="0.35" stop-color="#dfe673"/><stop offset="0.89" stop-color="#a2ce59"/><stop offset="1" stop-color="#64ab45"/></radialGradient><radialGradient id="GradientFill_2" cx="8.13" cy="4.87" r="1.12" gradientUnits="userSpaceOnUse"><stop offset="0" stop-color="#64ab45"/><stop offset="0.29" stop-color="#67ad46"/><stop offset="0.52" stop-color="#71b247"/><stop offset="0.73" stop-color="#82bc4b"/><stop offset="0.93" stop-color="#9ac94f"/><stop offset="1" stop-color="#a4cf51"/></radialGradient><radialGradient id="GradientFill_2-2" cx="7.33" cy="11.03" r="1.1" xlink:href="#GradientFill_2"/><radialGradient id="GradientFill_2-3" cx="7.6" cy="4.2" r="1.21" xlink:href="#GradientFill_2"/><radialGradient id="GradientFill_2-4" cx="8.27" cy="11.61" r="1.25" xlink:href="#GradientFill_2"/><radialGradient id="GradientFill_2-5" cx="645.04" cy="-502.4" r="1.25" gradientTransform="matrix(0.94, -0.34, 0.34, 0.94, -423.52, 704.62)" xlink:href="#GradientFill_2"/><radialGradient id="GradientFill_2-6" cx="7.23" cy="5.28" r="0.92" xlink:href="#GradientFill_2"/><radialGradient id="GradientFill_2-7" cx="8.61" cy="10.54" r="0.92" xlink:href="#GradientFill_2"/><radialGradient id="GradientFill_2-8" cx="938.68" cy="-668.7" r="0.92" gradientTransform="translate(-502.71 1042.51) rotate(-28.14)" xlink:href="#GradientFill_2"/><radialGradient id="GradientFill_2-9" cx="6.54" cy="4.86" r="1.18" xlink:href="#GradientFill_2"/><radialGradient id="GradientFill_2-10" cx="807.15" cy="3537.28" r="1.18" gradientTransform="translate(3592.01 -577.78) rotate(93.58)" xlink:href="#GradientFill_2"/><radialGradient id="GradientFill_2-11" cx="6.32" cy="5.63" r="1.07" xlink:href="#GradientFill_2"/><radialGradient id="GradientFill_2-12" cx="5.72" cy="5.69" r="1.4" xlink:href="#GradientFill_2"/><radialGradient id="GradientFill_2-13" cx="4.76" cy="5.46" r="1.6" xlink:href="#GradientFill_2"/><radialGradient id="GradientFill_2-14" cx="4.92" cy="6.44" r="1.19" xlink:href="#GradientFill_2"/><radialGradient id="GradientFill_2-15" cx="4.65" cy="6.75" r="1.22" xlink:href="#GradientFill_2"/><radialGradient id="GradientFill_2-16" cx="4.54" cy="7.25" r="1.14" xlink:href="#GradientFill_2"/><radialGradient id="GradientFill_2-17" cx="4.27" cy="8.2" r="1.16" xlink:href="#GradientFill_2"/><radialGradient id="GradientFill_2-18" cx="4.67" cy="8.55" r="1.09" xlink:href="#GradientFill_2"/><radialGradient id="GradientFill_2-19" cx="4.68" cy="9.03" r="1.15" xlink:href="#GradientFill_2"/><radialGradient id="GradientFill_2-20" cx="4.24" cy="10.2" r="1.68" xlink:href="#GradientFill_2"/><radialGradient id="GradientFill_2-21" cx="11.14" cy="5.71" r="1.66" xlink:href="#GradientFill_2"/><radialGradient id="GradientFill_2-22" cx="5.14" cy="10.44" r="1.67" xlink:href="#GradientFill_2"/><radialGradient id="GradientFill_2-23" cx="10.41" cy="5.38" r="1.64" xlink:href="#GradientFill_2"/><radialGradient id="GradientFill_2-24" cx="5.74" cy="10.47" r="1.38" xlink:href="#GradientFill_2"/><radialGradient id="GradientFill_2-25" cx="9.8" cy="5.32" r="1.41" xlink:href="#GradientFill_2"/><radialGradient id="GradientFill_2-27" cx="227.59" cy="3200.18" r="1.41" gradientTransform="translate(3179.34 -492.22) rotate(85.07)" xlink:href="#GradientFill_2"/><radialGradient id="GradientFill_2-28" cx="6.07" cy="10.83" r="1.33" xlink:href="#GradientFill_2"/><radialGradient id="GradientFill_2-29" cx="9.43" cy="5.01" r="1.32" xlink:href="#GradientFill_2"/><radialGradient id="GradientFill_2-30" cx="6.7" cy="11.34" r="1.31" xlink:href="#GradientFill_2"/><radialGradient id="GradientFill_2-31" cx="8.66" cy="4.47" r="1.3" xlink:href="#GradientFill_2"/><radialGradient id="GradientFill_2-32" cx="-406.84" cy="1961.5" r="1.66" gradientTransform="translate(1791.95 -908.44) rotate(51.02)" xlink:href="#GradientFill_2"/><radialGradient id="GradientFill_2-33" cx="-407.56" cy="1961.17" r="1.64" gradientTransform="translate(1791.95 -908.44) rotate(51.02)" xlink:href="#GradientFill_2"/><radialGradient id="GradientFill_2-34" cx="-408.18" cy="1961.11" r="1.41" gradientTransform="translate(1791.95 -908.44) rotate(51.02)" xlink:href="#GradientFill_2"/><radialGradient id="GradientFill_2-35" cx="-408.54" cy="1960.8" r="1.32" gradientTransform="translate(1791.95 -908.44) rotate(51.02)" xlink:href="#GradientFill_2"/></defs><title>Asset 1</title><g id="Layer_2" data-name="Layer 2"><g id="Layer_1-2" data-name="Layer 1"><path class="cls-1" d="M15.13,4.94a12.14,12.14,0,0,0-.54-1.2,4.17,4.17,0,0,0-.78-1A5.9,5.9,0,0,0,9.59.26C7.34.19,5.85.13,3.83,1.36A7.55,7.55,0,0,0,.27,6.85a7.63,7.63,0,0,0,.88,4.4h0a8.71,8.71,0,0,0,.5.94,7.55,7.55,0,0,0,5.49,3.55,7.59,7.59,0,0,0,4.25-.8h0l.15-.08h0c.5-.32,2.14-1.4,2.41-2.12a11.81,11.81,0,0,0,1.63-3.36A6.73,6.73,0,0,0,15.13,4.94Z"/><path class="cls-2" d="M8,0a8,8,0,1,0,8,8A8,8,0,0,0,8,0ZM8,15.49A7.49,7.49,0,1,1,15.49,8,7.49,7.49,0,0,1,8,15.49Z"/><path class="cls-3" d="M15,5.9h0a12.77,12.77,0,0,0-.86-2.15A4.79,4.79,0,0,0,12.74,2.2,5.21,5.21,0,0,0,9.81.71L9.47.6C6.16-.39,1,2.64.82,6.2A6.76,6.76,0,0,0,.69,7a7.24,7.24,0,0,0,.74,4h0a8.41,8.41,0,0,0,.43.81,7.18,7.18,0,0,0,5.22,3.38,6.88,6.88,0,0,0,2.81-.27h0A12.68,12.68,0,0,0,12,14c1.54-.81,2.66-3.1,3.13-4.69A6,6,0,0,0,15,5.9Z"/><path class="cls-4" d="M8.83,3.21C8.81,3.3,8.29,7,8.18,7s.25-3.74.26-3.84a.2.2,0,0,1,.39.07Z"/><path class="cls-5" d="M7.67,13c0-.1.36-3.81.25-3.81s-.64,3.7-.64,3.79a.2.2,0,0,0,.39,0Z"/><path class="cls-6" d="M7.87,2.17c0,.12.2,4.57.06,4.57s-.56-4.46-.57-4.57A.23.23,0,0,1,7.62,2,.24.24,0,0,1,7.87,2.17Z"/><path class="cls-7" d="M8.68,13.92c0-.11-.43-4.56-.57-4.55s.05,4.48.07,4.6a.24.24,0,0,0,.28.18A.22.22,0,0,0,8.68,13.92Z"/><path class="cls-8" d="M10.58,13.05c-.05-.1-2-4.13-2.1-4.07s1.59,4.19,1.64,4.29a.24.24,0,0,0,.33.07A.22.22,0,0,0,10.58,13.05Z"/><path class="cls-9" d="M7.22,3.84c0,.08.69,3.25.6,3.27S6.89,4,6.87,3.9A.16.16,0,0,1,7,3.73.17.17,0,0,1,7.22,3.84Z"/><path class="cls-10" d="M9.2,12.17c0-.08-.85-3.22-.94-3.19s.58,3.21.61,3.29a.17.17,0,0,0,.21.1A.16.16,0,0,0,9.2,12.17Z"/><path class="cls-11" d="M11,11.33C10.89,11.27,8.68,8.89,8.62,9s2,2.55,2.09,2.61a.17.17,0,0,0,.23,0A.16.16,0,0,0,11,11.33Z"/><path class="cls-12" d="M6.14,3.18c0,.09,1.53,3.75,1.42,3.79S5.78,3.42,5.74,3.32a.2.2,0,0,1,.14-.24A.2.2,0,0,1,6.14,3.18Z"/><path class="cls-13" d="M13.06,6.38c-.1,0-3.84,1.29-3.87,1.18S12.84,6,12.94,6a.2.2,0,0,1,.23.15A.2.2,0,0,1,13.06,6.38Z"/><path class="cls-14" d="M5.73,4.43c0,.07,1.83,2.77,1.75,2.81s-2-2.58-2.05-2.65a.15.15,0,0,1,.08-.21A.18.18,0,0,1,5.73,4.43Z"/><path class="cls-15" d="M4.8,4.47c.06.07,2.55,2.72,2.47,2.79S4.55,4.78,4.49,4.71a.17.17,0,0,1,0-.25A.19.19,0,0,1,4.8,4.47Z"/><path class="cls-16" d="M3.25,4.1c.09.08,3.75,3,3.66,3.1S3,4.56,2.93,4.48a.24.24,0,0,1,0-.33A.23.23,0,0,1,3.25,4.1Z"/><path class="cls-17" d="M3.47,5.73C3.56,5.77,7,7.45,7,7.54S3.35,6.09,3.27,6a.16.16,0,0,1-.06-.24A.2.2,0,0,1,3.47,5.73Z"/><path class="cls-18" d="M3,6.28c.1,0,3.89,1.28,3.84,1.39s-3.9-1-4-1A.22.22,0,0,1,3,6.28Z"/><path class="cls-19" d="M2.74,7.2c.1,0,4.08.57,4.07.66s-4-.3-4.13-.32a.17.17,0,0,1-.15-.2A.19.19,0,0,1,2.74,7.2Z"/><path class="cls-20" d="M2.31,8.09c.11,0,4.4-.13,4.4,0s-4.29.46-4.4.46a.22.22,0,0,1-.2-.23A.21.21,0,0,1,2.31,8.09Z"/><path class="cls-21" d="M3,8.75c.1,0,3.88-.64,3.9-.54S3.13,9.09,3,9.11A.2.2,0,0,1,2.82,9,.16.16,0,0,1,3,8.75Z"/><path class="cls-22" d="M2.95,9.56C3,9.53,6.81,8.3,6.86,8.4S3.2,9.89,3.1,9.92a.22.22,0,0,1-.26-.12A.16.16,0,0,1,2.95,9.56Z"/><path class="cls-23" d="M2.38,11.28c.11-.06,4.29-2.6,4.36-2.47s-4,2.88-4.09,2.94a.26.26,0,0,1-.34-.12A.24.24,0,0,1,2.38,11.28Z"/><path class="cls-24" d="M13.23,4.32c-.1.07-4.15,2.81-4.06,2.93s4.28-2.42,4.38-2.5a.25.25,0,0,0,0-.35A.25.25,0,0,0,13.23,4.32Z"/><path class="cls-25" d="M3.66,11.83c.09-.07,3.28-3,3.36-2.91s-3,3.2-3.07,3.27a.21.21,0,0,1-.3,0A.22.22,0,0,1,3.66,11.83Z"/><path class="cls-26" d="M11.92,3.88C11.85,4,8.78,7,8.87,7.13s3.3-2.85,3.38-2.94a.22.22,0,0,0,0-.31A.21.21,0,0,0,11.92,3.88Z"/><path class="cls-27" d="M4.64,11.95c.06-.08,2.51-3.09,2.6-3S5,12.14,5,12.21a.21.21,0,0,1-.28,0A.19.19,0,0,1,4.64,11.95Z"/><path class="cls-28" d="M10.89,3.86c-.06.08-2.35,3.2-2.25,3.26s2.55-3,2.61-3a.19.19,0,0,0-.08-.26A.2.2,0,0,0,10.89,3.86Z"/><path class="cls-28" d="M10.89,3.86c-.06.08-2.35,3.2-2.25,3.26s2.55-3,2.61-3a.19.19,0,0,0-.08-.26A.2.2,0,0,0,10.89,3.86Z"/><path class="cls-29" d="M12.12,10.71c-.09,0-3.39-2.07-3.45-2s3.16,2.29,3.25,2.34a.19.19,0,0,0,.25-.1A.2.2,0,0,0,12.12,10.71Z"/><path class="cls-30" d="M5.18,12.53C5.24,12.44,7.26,9,7.37,9.06a40.16,40.16,0,0,1-1.78,3.68.23.23,0,0,1-.3,0A.19.19,0,0,1,5.18,12.53Z"/><path class="cls-31" d="M10.27,3.34C10.23,3.44,8.39,7,8.51,7A41.2,41.2,0,0,0,10.7,3.52a.2.2,0,0,0-.14-.25A.23.23,0,0,0,10.27,3.34Z"/><path class="cls-32" d="M6.32,13.4c0-.1,1.19-4.19,1.31-4.14s-.84,4.21-.87,4.32a.2.2,0,0,1-.28.1A.24.24,0,0,1,6.32,13.4Z"/><path class="cls-33" d="M9.11,2.53c0,.11-1,4.26-.86,4.29S9.53,2.76,9.56,2.65a.24.24,0,0,0-.19-.26A.2.2,0,0,0,9.11,2.53Z"/><ellipse class="cls-34" cx="5.26" cy="6.77" rx="0.16" ry="0.25" transform="translate(-3.3 7.21) rotate(-55.09)"/><ellipse class="cls-35" cx="5.21" cy="6.68" rx="0.05" ry="0.07" transform="translate(-3.25 7.12) rotate(-55.02)"/><ellipse class="cls-34" cx="4.64" cy="7.05" rx="0.16" ry="0.25" transform="translate(-3.65 8.64) rotate(-67.49)"/><ellipse class="cls-35" cx="4.71" cy="7.12" rx="0.05" ry="0.07" transform="translate(-3.67 8.77) rotate(-67.67)"/><ellipse class="cls-34" cx="5.42" cy="6" rx="0.16" ry="0.25" transform="translate(-2.63 5.24) rotate(-42.52)"/><ellipse class="cls-35" cx="5.38" cy="5.9" rx="0.05" ry="0.07" transform="translate(-2.57 5.15) rotate(-42.22)"/><ellipse class="cls-34" cx="5.81" cy="5.47" rx="0.16" ry="0.25" transform="translate(-1.96 3.63) rotate(-29.96)"/><ellipse class="cls-35" cx="5.8" cy="5.38" rx="0.05" ry="0.07" transform="translate(-1.91 3.6) rotate(-29.86)"/><ellipse class="cls-34" cx="5.51" cy="5.94" rx="0.16" ry="0.25" transform="translate(-2.57 6.44) rotate(-50.73)"/><ellipse class="cls-35" cx="5.56" cy="6.02" rx="0.05" ry="0.07" transform="translate(-2.63 6.48) rotate(-50.51)"/><ellipse class="cls-34" cx="5.98" cy="4.13" rx="0.16" ry="0.25" transform="translate(-1.29 4.01) rotate(-33.65)"/><ellipse class="cls-35" cx="5.96" cy="4.04" rx="0.05" ry="0.07" transform="translate(-1.24 3.95) rotate(-33.43)"/><ellipse class="cls-34" cx="6.04" cy="5.22" rx="0.16" ry="0.25" transform="translate(-1.94 5.18) rotate(-40.51)"/><ellipse class="cls-35" cx="6.07" cy="5.31" rx="0.05" ry="0.07" transform="translate(-1.99 5.22) rotate(-40.55)"/><ellipse class="cls-34" cx="6.01" cy="4.78" rx="0.16" ry="0.25" transform="translate(-1.45 2.98) rotate(-24.98)"/><ellipse class="cls-35" cx="6.01" cy="4.87" rx="0.05" ry="0.07" transform="translate(-1.5 3.01) rotate(-25.09)"/><ellipse class="cls-34" cx="6" cy="3.88" rx="0.16" ry="0.25" transform="translate(-0.93 2.13) rotate(-18.76)"/><ellipse class="cls-35" cx="5.99" cy="3.97" rx="0.05" ry="0.07" transform="translate(-0.97 2.16) rotate(-18.95)"/><ellipse class="cls-34" cx="6.52" cy="5.39" rx="0.16" ry="0.25" transform="translate(-1.32 2.21) rotate(-17.52)"/><ellipse class="cls-35" cx="6.51" cy="5.49" rx="0.05" ry="0.07" transform="translate(-1.33 2.18) rotate(-17.24)"/><ellipse class="cls-34" cx="8.08" cy="4.94" rx="0.16" ry="0.25" transform="translate(-0.46 0.85) rotate(-5.86)"/><ellipse class="cls-35" cx="8.11" cy="4.85" rx="0.05" ry="0.07" transform="translate(-0.45 0.84) rotate(-5.78)"/><ellipse class="cls-34" cx="7.01" cy="5.49" rx="0.17" ry="0.25" transform="translate(-0.76 1.15) rotate(-8.9)"/><ellipse class="cls-35" cx="6.99" cy="5.58" rx="0.05" ry="0.07" transform="translate(-0.79 1.16) rotate(-9.02)"/><ellipse class="cls-34" cx="8.47" cy="4.03" rx="0.25" ry="0.16" transform="translate(3.16 11.76) rotate(-80.95)"/><ellipse class="cls-35" cx="8.52" cy="3.94" rx="0.07" ry="0.06" transform="translate(3.3 11.75) rotate(-81.03)"/><ellipse class="cls-34" cx="7.77" cy="5.11" rx="0.25" ry="0.17" transform="translate(2.32 12.66) rotate(-87.47)"/><ellipse class="cls-35" cx="7.73" cy="5.2" rx="0.07" ry="0.05" transform="translate(2.17 12.68) rotate(-87.3)"/><ellipse class="cls-34" cx="8.89" cy="4.37" rx="0.25" ry="0.17" transform="translate(2.13 11.61) rotate(-73.1)"/><ellipse class="cls-35" cx="8.96" cy="4.29" rx="0.07" ry="0.05" transform="translate(2.23 11.61) rotate(-73.02)"/><ellipse class="cls-34" cx="7.94" cy="4.23" rx="0.25" ry="0.16" transform="translate(2.12 11.08) rotate(-77.65)"/><ellipse class="cls-35" cx="7.88" cy="4.31" rx="0.07" ry="0.05" transform="translate(2 11.1) rotate(-77.76)"/><ellipse class="cls-34" cx="9.11" cy="5.48" rx="0.25" ry="0.17" transform="translate(1.18 12.57) rotate(-72.8)"/><ellipse class="cls-35" cx="9.18" cy="5.41" rx="0.07" ry="0.05" transform="matrix(0.3, -0.95, 0.95, 0.3, 1.28, 12.56)"/><ellipse class="cls-34" cx="8.58" cy="5.04" rx="0.25" ry="0.16" transform="translate(1.74 12.27) rotate(-77.03)"/><ellipse class="cls-35" cx="8.52" cy="5.12" rx="0.07" ry="0.06" transform="translate(1.61 12.27) rotate(-76.97)"/><ellipse class="cls-34" cx="9.61" cy="4.12" rx="0.25" ry="0.16" transform="translate(1.1 10.19) rotate(-58.71)"/><ellipse class="cls-35" cx="9.69" cy="4.06" rx="0.07" ry="0.05" transform="translate(1.19 10.24) rotate(-58.76)"/><ellipse class="cls-34" cx="9.46" cy="5.79" rx="0.25" ry="0.16" transform="matrix(0.5, -0.87, 0.87, 0.5, -0.29, 11.08)"/><ellipse class="cls-35" cx="9.54" cy="5.73" rx="0.07" ry="0.06" transform="translate(-0.2 11.12) rotate(-59.94)"/><ellipse class="cls-34" cx="9.61" cy="6.44" rx="0.25" ry="0.17" transform="translate(-0.54 12) rotate(-62.53)"/><ellipse class="cls-35" cx="9.69" cy="6.38" rx="0.07" ry="0.05" transform="translate(-0.45 12.02) rotate(-62.46)"/><ellipse class="cls-34" cx="10.18" cy="5.56" rx="0.25" ry="0.16" transform="translate(-0.49 10.11) rotate(-51.74)"/><ellipse class="cls-35" cx="10.27" cy="5.51" rx="0.07" ry="0.05" transform="translate(-0.39 10.22) rotate(-52.06)"/><ellipse class="cls-34" cx="10.42" cy="4.09" rx="0.17" ry="0.25" transform="translate(-0.18 0.48) rotate(-2.64)"/><ellipse class="cls-35" cx="10.38" cy="4.18" rx="0.05" ry="0.07" transform="translate(-0.19 0.5) rotate(-2.72)"/><ellipse class="cls-34" cx="11.03" cy="5.22" rx="0.25" ry="0.16" transform="translate(-0.19 10.01) rotate(-48.45)"/><ellipse class="cls-35" cx="11.12" cy="5.18" rx="0.07" ry="0.05" transform="translate(-0.16 10) rotate(-48.1)"/><ellipse class="cls-34" cx="10.51" cy="6.19" rx="0.25" ry="0.16" transform="translate(-1.39 8.84) rotate(-43.01)"/><ellipse class="cls-35" cx="10.61" cy="6.15" rx="0.07" ry="0.05" transform="translate(-1.35 8.88) rotate(-42.96)"/><ellipse class="cls-34" cx="11.66" cy="5.92" rx="0.25" ry="0.16" transform="translate(-1.13 8.65) rotate(-38.96)"/><ellipse class="cls-35" cx="11.76" cy="5.9" rx="0.07" ry="0.05" transform="translate(-1.09 8.69) rotate(-38.9)"/><ellipse class="cls-34" cx="11.03" cy="6.19" rx="0.25" ry="0.16" transform="translate(-1.45 8.24) rotate(-38.61)"/><ellipse class="cls-35" cx="10.93" cy="6.21" rx="0.07" ry="0.05" transform="translate(-1.48 8.24) rotate(-38.9)"/><ellipse class="cls-34" cx="11.57" cy="6.83" rx="0.25" ry="0.16" transform="translate(-1.86 6.32) rotate(-28.4)"/><ellipse class="cls-35" cx="11.66" cy="6.83" rx="0.07" ry="0.05" transform="translate(-1.84 6.34) rotate(-28.27)"/><ellipse class="cls-34" cx="10.77" cy="6.93" rx="0.25" ry="0.16" transform="translate(-1.99 5.84) rotate(-27.87)"/><ellipse class="cls-35" cx="10.67" cy="6.94" rx="0.07" ry="0.05" transform="translate(-2.01 5.85) rotate(-28.11)"/><ellipse class="cls-34" cx="11.39" cy="7.26" rx="0.25" ry="0.16" transform="translate(-1.94 5.07) rotate(-23.2)"/><ellipse class="cls-35" cx="11.29" cy="7.26" rx="0.07" ry="0.05" transform="translate(-1.96 5.12) rotate(-23.58)"/><path class="cls-36" d="M13.73,10.05C13.61,10,8.94,8.6,8.9,8.74s4.58,1.8,4.7,1.83a.25.25,0,0,0,.28-.2A.25.25,0,0,0,13.73,10.05Z"/><path class="cls-37" d="M13.25,8.76c-.11,0-4.44-.45-4.45-.32s4.3.77,4.41.78A.22.22,0,0,0,13.43,9,.21.21,0,0,0,13.25,8.76Z"/><path class="cls-38" d="M12.62,7.95c-.1,0-4,.19-4,.3s3.9.13,4,.12a.19.19,0,0,0,.16-.22A.2.2,0,0,0,12.62,7.95Z"/><path class="cls-39" d="M12.63,7.14c-.1,0-4,.81-4,.93s4-.47,4.09-.49a.2.2,0,0,0,.11-.27A.23.23,0,0,0,12.63,7.14Z"/><ellipse class="cls-34" cx="11.34" cy="8.96" rx="0.16" ry="0.25" transform="translate(1.88 19.89) rotate(-87.44)"/><ellipse class="cls-35" cx="11.43" cy="9.01" rx="0.05" ry="0.07" transform="translate(1.85 19.96) rotate(-87.08)"/><ellipse class="cls-34" cx="10.78" cy="8.29" rx="0.16" ry="0.25" transform="translate(1.07 17.8) rotate(-81.99)"/><ellipse class="cls-35" cx="10.86" cy="8.34" rx="0.05" ry="0.07" transform="translate(1.09 17.93) rotate(-81.97)"/><ellipse class="cls-34" cx="11.37" cy="9.69" rx="0.16" ry="0.25" transform="translate(-0.48 18.79) rotate(-77.95)"/><ellipse class="cls-35" cx="11.45" cy="9.75" rx="0.05" ry="0.07" transform="translate(-0.48 18.9) rotate(-77.89)"/><ellipse class="cls-34" cx="10.94" cy="9.31" rx="0.16" ry="0.25" transform="translate(-0.5 18) rotate(-77.61)"/><ellipse class="cls-35" cx="10.86" cy="9.25" rx="0.05" ry="0.07" transform="translate(-0.47 17.92) rotate(-77.84)"/><ellipse class="cls-34" cx="11.46" cy="10.64" rx="0.16" ry="0.25" transform="translate(-1.4 19.55) rotate(-77.61)"/><ellipse class="cls-35" cx="11.38" cy="10.59" rx="0.05" ry="0.07" transform="translate(-1.37 19.48) rotate(-77.84)"/><ellipse class="cls-34" cx="10.61" cy="10.04" rx="0.16" ry="0.25" transform="matrix(0.38, -0.92, 0.92, 0.38, -2.74, 15.97)"/><ellipse class="cls-35" cx="10.68" cy="10.11" rx="0.05" ry="0.07" transform="translate(-2.77 16.06) rotate(-67.29)"/><ellipse class="cls-34" cx="10.44" cy="9.31" rx="0.16" ry="0.25" transform="translate(-2.22 15.25) rotate(-66.87)"/><ellipse class="cls-35" cx="10.37" cy="9.24" rx="0.05" ry="0.07" transform="translate(-2.17 15.2) rotate(-67.1)"/><ellipse class="cls-34" cx="10.29" cy="10.47" rx="0.16" ry="0.25" transform="translate(-3.78 14.68) rotate(-62.18)"/><ellipse class="cls-35" cx="10.23" cy="10.4" rx="0.06" ry="0.07" transform="translate(-3.72 14.67) rotate(-62.5)"/><ellipse class="cls-34" cx="9.79" cy="11.44" rx="0.16" ry="0.25" transform="translate(-4.18 5.82) rotate(-27.53)"/><ellipse class="cls-35" cx="9.8" cy="11.54" rx="0.05" ry="0.07" transform="translate(-4.21 5.8) rotate(-27.37)"/><ellipse class="cls-34" cx="8.97" cy="10.89" rx="0.16" ry="0.25" transform="translate(-2.72 3) rotate(-16.5)"/><ellipse class="cls-35" cx="8.96" cy="10.99" rx="0.06" ry="0.07" transform="translate(-2.74 2.98) rotate(-16.4)"/><ellipse class="cls-34" cx="8.96" cy="11.91" rx="0.16" ry="0.25" transform="translate(-2.42 2.28) rotate(-12.82)"/><ellipse class="cls-35" cx="8.94" cy="12.01" rx="0.05" ry="0.07" transform="translate(-2.44 2.28) rotate(-12.82)"/><ellipse class="cls-34" cx="9.44" cy="10.6" rx="0.16" ry="0.25" transform="matrix(0.96, -0.29, 0.29, 0.96, -2.68, 3.22)"/><ellipse class="cls-35" cx="9.45" cy="10.51" rx="0.06" ry="0.07" transform="translate(-2.63 3.18) rotate(-16.78)"/><ellipse class="cls-34" cx="8.33" cy="11.25" rx="0.25" ry="0.16" transform="translate(-3.7 18.41) rotate(-84.26)"/><ellipse class="cls-35" cx="8.28" cy="11.33" rx="0.07" ry="0.05" transform="translate(-3.87 18.37) rotate(-83.93)"/><ellipse class="cls-34" cx="8.34" cy="11.79" rx="0.16" ry="0.25" transform="translate(-1.08 0.85) rotate(-5.45)"/><ellipse class="cls-35" cx="8.37" cy="11.69" rx="0.06" ry="0.07" transform="translate(-1.07 0.84) rotate(-5.42)"/><ellipse class="cls-34" cx="8.05" cy="12.17" rx="0.25" ry="0.16" transform="translate(-5 18.69) rotate(-83.07)"/><ellipse class="cls-35" cx="8.1" cy="12.08" rx="0.07" ry="0.05" transform="translate(-4.87 18.66) rotate(-83.07)"/><ellipse class="cls-34" cx="7.11" cy="11.07" rx="0.25" ry="0.17" transform="translate(-5.51 14.79) rotate(-73.69)"/><ellipse class="cls-35" cx="7.05" cy="11.15" rx="0.07" ry="0.05" transform="translate(-5.63 14.8) rotate(-73.76)"/><ellipse class="cls-34" cx="8.03" cy="10.85" rx="0.25" ry="0.16" transform="translate(-4.29 16.36) rotate(-77.6)"/><ellipse class="cls-35" cx="8.09" cy="10.77" rx="0.07" ry="0.05" transform="translate(-4.17 16.34) rotate(-77.53)"/><ellipse class="cls-34" cx="7.47" cy="11.18" rx="0.25" ry="0.16" transform="translate(-4.64 17.01) rotate(-81.97)"/><ellipse class="cls-35" cx="7.52" cy="11.09" rx="0.07" ry="0.06" transform="translate(-4.5 17.02) rotate(-82.11)"/><ellipse class="cls-34" cx="6.42" cy="11.84" rx="0.25" ry="0.17" transform="translate(-7.05 12.19) rotate(-63.04)"/><ellipse class="cls-35" cx="6.49" cy="11.78" rx="0.07" ry="0.05" transform="translate(-6.95 12.25) rotate(-63.13)"/><ellipse class="cls-34" cx="7.17" cy="10.53" rx="0.25" ry="0.16" transform="translate(-5.46 12.15) rotate(-63.06)"/><ellipse class="cls-35" cx="7.25" cy="10.47" rx="0.07" ry="0.05" transform="translate(-5.37 12.19) rotate(-63.06)"/><ellipse class="cls-34" cx="6.57" cy="11.25" rx="0.25" ry="0.16" transform="translate(-6.45 11.13) rotate(-59.17)"/><ellipse class="cls-35" cx="6.66" cy="11.19" rx="0.07" ry="0.06" transform="translate(-6.37 11.11) rotate(-58.92)"/><ellipse class="cls-34" cx="6.29" cy="9.7" rx="0.25" ry="0.17" transform="translate(-5.19 8.36) rotate(-50.37)"/><ellipse class="cls-35" cx="6.2" cy="9.75" rx="0.07" ry="0.05" transform="translate(-5.27 8.35) rotate(-50.59)"/><ellipse class="cls-34" cx="6.23" cy="10.75" rx="0.25" ry="0.16" transform="translate(-5.77 13.97) rotate(-74.91)"/><ellipse class="cls-35" cx="6.29" cy="10.67" rx="0.07" ry="0.05" transform="translate(-5.66 13.93) rotate(-74.7)"/><ellipse class="cls-34" cx="5.72" cy="9.83" rx="0.25" ry="0.16" transform="matrix(0.72, -0.7, 0.7, 0.72, -5.23, 6.76)"/><ellipse class="cls-35" cx="5.63" cy="9.86" rx="0.07" ry="0.05" transform="translate(-5.27 6.69) rotate(-44.05)"/><ellipse class="cls-34" cx="5.59" cy="9.19" rx="0.25" ry="0.16" transform="translate(-4.27 4.89) rotate(-35.15)"/><ellipse class="cls-35" cx="5.49" cy="9.21" rx="0.07" ry="0.05" transform="translate(-4.3 4.83) rotate(-35.1)"/><ellipse class="cls-34" cx="6.22" cy="9.65" rx="0.25" ry="0.16" transform="translate(-4.98 12.16) rotate(-69.88)"/><ellipse class="cls-35" cx="6.28" cy="9.57" rx="0.07" ry="0.06" transform="translate(-4.88 12.14) rotate(-69.69)"/><ellipse class="cls-34" cx="5.51" cy="8.24" rx="0.16" ry="0.25" transform="translate(-2.94 13.43) rotate(-87.8)"/><ellipse class="cls-35" cx="5.42" cy="8.2" rx="0.05" ry="0.07" transform="translate(-3 13.27) rotate(-87.59)"/><ellipse class="cls-34" cx="4.37" cy="9.17" rx="0.25" ry="0.16" transform="translate(-3.19 2.38) rotate(-22.6)"/><ellipse class="cls-35" cx="4.47" cy="9.17" rx="0.07" ry="0.05" transform="translate(-3.2 2.44) rotate(-22.74)"/><ellipse class="cls-34" cx="4.94" cy="7.89" rx="0.25" ry="0.16" transform="translate(-1.31 0.99) rotate(-10.11)"/><ellipse class="cls-35" cx="4.84" cy="7.87" rx="0.07" ry="0.05" transform="matrix(0.98, -0.17, 0.17, 0.98, -1.3, 0.97)"/><ellipse class="cls-34" cx="4.11" cy="7.76" rx="0.25" ry="0.16" transform="translate(-0.42 0.24) rotate(-3.15)"/><ellipse class="cls-35" cx="4.01" cy="7.72" rx="0.07" ry="0.05" transform="translate(-0.45 0.25) rotate(-3.36)"/><ellipse class="cls-34" cx="4.18" cy="8.51" rx="0.25" ry="0.16" transform="translate(-1.35 0.81) rotate(-9.53)"/><ellipse class="cls-35" cx="4.28" cy="8.53" rx="0.07" ry="0.05" transform="translate(-1.36 0.83) rotate(-9.57)"/><ellipse class="cls-34" cx="4.87" cy="7.21" rx="0.25" ry="0.16" transform="translate(-0.12 0.08) rotate(-0.98)"/><ellipse class="cls-35" cx="4.78" cy="7.18" rx="0.07" ry="0.05" transform="translate(-0.11 0.07) rotate(-0.89)"/><ellipse class="cls-34" cx="5.21" cy="7.28" rx="0.16" ry="0.25" transform="translate(-3.63 5.87) rotate(-45.36)"/><ellipse class="cls-35" cx="5.17" cy="7.19" rx="0.05" ry="0.07" transform="translate(-3.58 5.82) rotate(-45.37)"/><ellipse class="cls-34" cx="3.61" cy="6.83" rx="0.16" ry="0.25" transform="translate(-0.71 0.43) rotate(-6.14)"/><ellipse class="cls-35" cx="3.64" cy="6.74" rx="0.05" ry="0.07" transform="translate(-0.72 0.44) rotate(-6.29)"/><path class="cls-40" d="M5.66,7.46a3.25,3.25,0,0,0,.5.13s.42.07.43.16-.43,0-.43.09a1.9,1.9,0,0,0,.38,0c.08,0,.17,0,.18.06L6.48,8a7.29,7.29,0,0,0-.75.14c0,.06.52,0,.53,0s-.1.06-.21.09-.21.06-.21.09.9-.18.91-.13-.19.12-.39.2-.4.16-.39.2a4.2,4.2,0,0,0,.56-.15.82.82,0,0,1,.23-.06h.14s0,0,0,0,0,0,0,0,.12,0,.12,0l-.07.06s-.19.13-.18.15.18-.08.2,0a.08.08,0,0,1,0,0c0,.05,0,.09-.08.12a3.45,3.45,0,0,0-.37.35A1.66,1.66,0,0,0,6.73,9L7,8.79c.11-.08.13-.13.24,0a3.7,3.7,0,0,0-.33.37s.34-.36.43-.3L7,9.2A.66.66,0,0,0,7,9.44H7s.44-.5.5-.58h0c0,.07-.49.76-.49.8S7.5,9,7.54,9a2.32,2.32,0,0,1-.23.48,3,3,0,0,0-.24.47c.09,0,.52-.77.53-.77v0a.78.78,0,0,1,0,.2.72.72,0,0,0,0,.2v0c.07,0,.25-.5.32-.48h0a2,2,0,0,1-.07.37,2.11,2.11,0,0,0-.07.36h0c.05,0,.15-.54.2-.53s0,0,0,0a3.36,3.36,0,0,1,0,.48,3.57,3.57,0,0,0,0,.47s0,0,0,0S8,9.6,8,9.61s0,.05,0,.12,0,.06,0,.09V9.9c0,.06,0,.11,0,.11s0-.54.09-.55,0,0,0,0a1,1,0,0,1,0,.11s0,.08,0,.11,0,0,0,0,0-.66.12-.68.32,1.19.38,1.17,0,0,0-.07A2.92,2.92,0,0,0,8.7,9.9c0-.11-.05-.22-.06-.29s0-.07,0-.07.33.71.39.68,0,0,0,0a3.57,3.57,0,0,0-.18-.46,3.42,3.42,0,0,1-.18-.47s0,0,0,0,.41.69.45.67S8.7,9.09,8.66,9c.16,0,.18,0,.28.13l.27.29s.29.32.3.31A8.14,8.14,0,0,0,8.92,9a7.56,7.56,0,0,1,.9.66,0,0,0,0,0,0,0c0-.06-.17-.2-.33-.33S9.16,9,9.16,9a0,0,0,0,1,0,0s.72.39.74.36-.52-.38-.59-.42.13,0,.12-.08h0l.66.25-.24-.15-.25-.14c-.13-.08-.19-.1-.23-.24,0,0,.33.19.34.17s-.05-.07-.1-.11-.1-.08-.11-.1.5.28.52.24a1.4,1.4,0,0,0-.33-.24,1.75,1.75,0,0,1-.33-.23c0-.06,1,.39,1,.35a.52.52,0,0,0-.14-.17l-.29-.1c-.05,0-.57-.14-.58-.24s.43,0,.46,0a4.77,4.77,0,0,0,.59,0A2.83,2.83,0,0,0,9.92,8s-.42,0-.43-.09.4-.18.43-.19a4.07,4.07,0,0,0,.58-.25c0-.09-1.11.36-1.17.2s.06-.06.13-.09.14-.06.13-.09-.23.08-.26,0,.09-.08.19-.14.19-.12.19-.14-.55.32-.58.27A6.41,6.41,0,0,1,9.69,7a5.77,5.77,0,0,0,.4-.46s-.75.6-.79.56.06-.11.12-.18.13-.15.13-.18-.49.47-.53.44a0,0,0,0,1,0,0c0-.08.11-.23.23-.38s.24-.28.23-.32h0s-.3.35-.34.32a1.24,1.24,0,0,1,.18-.34,1.52,1.52,0,0,0,.18-.34c-.06,0-.6.83-.66.79h0a.33.33,0,0,1,0-.12.3.3,0,0,0,0-.11h0s-.26.49-.29.54a.09.09,0,0,1,0-.06c0-.06.06-.14.09-.22a1,1,0,0,0,.07-.17c-.05,0-.19.35-.25.33a2.41,2.41,0,0,1,.15-.5A3.21,3.21,0,0,0,8.75,6s-.35,1-.39,1h0a1.72,1.72,0,0,1,.06-.33,1.77,1.77,0,0,0,.06-.33h0s-.2.62-.23.68,0,0,0,0a3.41,3.41,0,0,1,.11-.62,3.84,3.84,0,0,0,.11-.58h0a4.22,4.22,0,0,0-.23.64A4.26,4.26,0,0,1,8,6.9H8c0-.06,0-.29,0-.52s0-.46,0-.51h0a7.58,7.58,0,0,0-.15,1h0s0,0-.05,0-.05,0-.06,0V6.77l-.05-.34A2.78,2.78,0,0,0,7.65,6s.07.79.08.86-.17,0-.19,0l0-.15-.13-.42a4.49,4.49,0,0,0-.18-.52s0,0,0,0a3.43,3.43,0,0,0,.09.36,3.53,3.53,0,0,1,.09.37s0,.05,0,.05S7,5.85,7,5.87s0,0,0,0a2.11,2.11,0,0,0,.11.33,2.21,2.21,0,0,1,.11.33s0,0,0,0-.5-.68-.5-.69a.08.08,0,0,0,0,.06,1.35,1.35,0,0,0,.25.44,2.23,2.23,0,0,1,.24.35h0S7,6.68,7,6.72A2,2,0,0,0,7.24,7c-.08,0-.81-.64-.83-.62h0a1.74,1.74,0,0,0,.23.31,1,1,0,0,1,.2.31,0,0,0,0,1,0,0s-.2-.08-.22,0a0,0,0,0,0,0,0s0,.06.07.08.06,0,.07.06-.12-.06-.15,0l0,0,0,0c.06.05.14.08.15.14a.09.09,0,0,1,0,.05,2,2,0,0,0-.32-.18s.06.07.12.13a.4.4,0,0,1,.13.18.07.07,0,0,1,0,0c-.05,0-.53-.24-.54-.22s.12.08.23.13.23.1.23.12S5.67,7.41,5.66,7.46Z"/><path class="cls-41" d="M11.05,7.54c.14,0,.26.05.27.14h0l-.12.15-.12,0c-.14,0-.26-.05-.27-.14S10.91,7.55,11.05,7.54Z"/><ellipse class="cls-35" cx="10.97" cy="7.67" rx="0.07" ry="0.05" transform="translate(-0.6 0.93) rotate(-4.73)"/><circle class="cls-42" cx="8" cy="8" r="5.89"/></g></g></svg>